
<svg viewBox="0 0 600 54" xmlns="http://www.w3.org/2000/svg">
    <rect width="100%" height="100%" fill="white" />
<svg width="220" height="52" viewBox="0 0 220 52" transform="translate(190 1)">
<path fill-rule="evenodd" clip-rule="evenodd" d="M64.2695 2.23163H61.2773V0.236969H69.4248V2.23163H66.433V10.0699H64.2695V2.23163Z" fill="#0D0F3D"/>
<path fill-rule="evenodd" clip-rule="evenodd" d="M71.082 0.236969H75.5774C76.8275 0.236969 77.7969 0.587755 78.4428 1.23408C78.9905 1.78218 79.2856 2.55479 79.2856 3.48218V3.51024C79.2856 5.09755 78.4288 6.09466 77.1787 6.55813L79.5807 10.0699H77.052L74.9446 6.92383H73.2451V10.0699H71.082V0.236969ZM75.4366 5.01248C76.4903 5.01248 77.0941 4.45122 77.0941 3.62249V3.59399C77.0941 2.66704 76.4482 2.18953 75.3945 2.18953H73.2451V5.01248H75.4366Z" fill="#0D0F3D"/>
<path fill-rule="evenodd" clip-rule="evenodd" d="M84.6088 0.16687L80.395 10.07H82.6001L83.499 7.86531H87.6576L88.5561 10.07H90.8177L86.6035 0.16687H84.6088ZM85.5783 2.76576L86.8846 5.9544H84.2716L85.5783 2.76576Z" fill="#0D0F3D"/>
<path fill-rule="evenodd" clip-rule="evenodd" d="M92.334 0.236969H94.3286L98.9362 6.29153V0.236969H101.072V10.0699H99.2309L94.469 3.81893V10.0699H92.334V0.236969Z" fill="#0D0F3D"/>
<path fill-rule="evenodd" clip-rule="evenodd" d="M102.756 8.63744L104.034 7.10626C104.919 7.83633 105.847 8.30025 106.97 8.30025C107.855 8.30025 108.389 7.94902 108.389 7.3733V7.3448C108.389 6.79713 108.052 6.5165 106.408 6.09468C104.427 5.58867 103.15 5.04101 103.15 3.08888V3.06038C103.15 1.2762 104.582 0.0966797 106.591 0.0966797C108.024 0.0966797 109.246 0.545686 110.243 1.34679L109.12 2.97619C108.249 2.37197 107.392 2.00671 106.563 2.00671C105.734 2.00671 105.299 2.386 105.299 2.86394V2.89157C105.299 3.53789 105.72 3.7488 107.42 4.18421C109.415 4.70425 110.539 5.42073 110.539 7.13388V7.16239C110.539 9.11451 109.049 10.2107 106.928 10.2107C105.439 10.2107 103.936 9.69068 102.756 8.63744Z" fill="#0D0F3D"/>
<path fill-rule="evenodd" clip-rule="evenodd" d="M112.42 0.236969H116.437C118.784 0.236969 120.202 1.6274 120.202 3.63652V3.66459C120.202 5.94031 118.432 7.12027 116.226 7.12027H114.583V10.0699H112.42V0.236969ZM116.297 5.19533C117.379 5.19533 118.011 4.54944 118.011 3.70624V3.67818C118.011 2.70913 117.337 2.18953 116.254 2.18953H114.583V5.19533H116.297Z" fill="#0D0F3D"/>
<path fill-rule="evenodd" clip-rule="evenodd" d="M121.368 5.18179V5.15373C121.368 2.3584 123.574 0.0682068 126.608 0.0682068C129.642 0.0682068 131.819 2.3299 131.819 5.12566V5.15373C131.819 7.94905 129.614 10.2388 126.579 10.2388C123.545 10.2388 121.368 7.97712 121.368 5.18179ZM129.558 5.18179V5.15373C129.558 3.46776 128.322 2.06286 126.579 2.06286C124.838 2.06286 123.629 3.4397 123.629 5.12566V5.15373C123.629 6.83925 124.866 8.24415 126.608 8.24415C128.35 8.24415 129.558 6.86732 129.558 5.18179Z" fill="#0D0F3D"/>
<path fill-rule="evenodd" clip-rule="evenodd" d="M133.742 0.236969H138.238C139.488 0.236969 140.457 0.587755 141.103 1.23408C141.651 1.78218 141.946 2.55479 141.946 3.48218V3.51024C141.946 5.09755 141.089 6.09466 139.838 6.55813L142.241 10.0699H139.712L137.605 6.92383H135.905V10.0699H133.742V0.236969ZM138.097 5.01248C139.15 5.01248 139.755 4.45122 139.755 3.62249V3.59399C139.755 2.66704 139.108 2.18953 138.055 2.18953H135.905V5.01248H138.097Z" fill="#0D0F3D"/>
<path fill-rule="evenodd" clip-rule="evenodd" d="M146.187 2.23163H143.195V0.236969H151.343V2.23163H148.35V10.0699H146.187V2.23163Z" fill="#0D0F3D"/>
<path fill-rule="evenodd" clip-rule="evenodd" d="M157.213 0.236969H164.701V2.20312H159.376V4.29644H164.068V6.26303H159.376V10.0699H157.213V0.236969Z" fill="#0D0F3D"/>
<path fill-rule="evenodd" clip-rule="evenodd" d="M165.992 5.18179V5.15373C165.992 2.3584 168.197 0.0682068 171.232 0.0682068C174.266 0.0682068 176.443 2.3299 176.443 5.12566V5.15373C176.443 7.94905 174.238 10.2388 171.204 10.2388C168.17 10.2388 165.992 7.97712 165.992 5.18179ZM174.182 5.18179V5.15373C174.182 3.46776 172.945 2.06286 171.204 2.06286C169.461 2.06286 168.254 3.4397 168.254 5.12566V5.15373C168.254 6.83925 169.49 8.24415 171.232 8.24415C172.974 8.24415 174.182 6.86732 174.182 5.18179Z" fill="#0D0F3D"/>
<path fill-rule="evenodd" clip-rule="evenodd" d="M178.367 0.236969H182.863C184.113 0.236969 185.082 0.587755 185.728 1.23408C186.276 1.78218 186.571 2.55479 186.571 3.48218V3.51024C186.571 5.09755 185.714 6.09466 184.463 6.55813L186.865 10.0699H184.338L182.229 6.92383H180.53V10.0699H178.367V0.236969ZM182.721 5.01248C183.775 5.01248 184.379 4.45122 184.379 3.62249V3.59399C184.379 2.66704 183.733 2.18953 182.68 2.18953H180.53V5.01248H182.721Z" fill="#0D0F3D"/>
<path fill-rule="evenodd" clip-rule="evenodd" d="M195.025 2.23163H192.034V0.236969H200.181V2.23163H197.189V10.0699H195.025V2.23163Z" fill="#0D0F3D"/>
<path fill-rule="evenodd" clip-rule="evenodd" d="M201.838 0.236969H204.001V4.1285H207.991V0.236969H210.154V10.0699H207.991V6.12272H204.001V10.0699H201.838V0.236969Z" fill="#0D0F3D"/>
<path fill-rule="evenodd" clip-rule="evenodd" d="M212.513 0.236969V10.0699H220V8.14544H214.662V6.08063H219.297V4.15613H214.662V2.16147H219.93V0.236969H212.513Z" fill="#0D0F3D"/>
<path fill-rule="evenodd" clip-rule="evenodd" d="M90.4344 50.1101H86.4078L66.3293 24.6119V50.1101H61.2749V15.8953H65.8158L85.38 40.7827V15.8953H90.4344V50.1101Z" fill="#0D0F3D"/>
<path fill-rule="evenodd" clip-rule="evenodd" d="M162.564 50.1105H156.208L146.706 37.3792H138.433V50.1105H133.286V15.8953H148.099C152.187 15.8953 155.677 17.1344 157.926 19.3843C159.693 21.1514 160.666 23.627 160.666 26.3561V26.45C160.666 31.4474 157.566 35.1262 152.308 36.4662L162.564 50.1105ZM138.433 32.605H147.772C152.449 32.605 155.472 30.2442 155.472 26.5903V26.4969C155.472 22.8527 152.682 20.7629 147.819 20.7629H138.433V32.605Z" fill="#0D0F3D"/>
<path fill-rule="evenodd" clip-rule="evenodd" d="M178.101 50.1101H172.906V20.7629H161.907V15.8953H189.101V20.7629H178.101V50.1101Z" fill="#0D0F3D"/>
<path fill-rule="evenodd" clip-rule="evenodd" d="M214.81 15.8953V30.452H197.35V15.8953H192.202V50.1101H197.35V35.3665H214.81V50.1101H219.958V15.8953H214.81Z" fill="#0D0F3D"/>
<mask id="mask0_2278_3042" style="mask-type:luminance" maskUnits="userSpaceOnUse" x="0" y="0" width="131" height="52">
<path d="M0 0H130.033V51.4237H0V0Z" fill="white"/>
</mask>
<g mask="url(#mask0_2278_3042)">
<path fill-rule="evenodd" clip-rule="evenodd" d="M111.811 51.4237C106.693 51.4237 102.03 49.4759 98.6808 45.9391C95.4606 42.5378 93.6865 37.9785 93.6865 33.1013V33.0022C93.6865 28.1254 95.4773 23.5489 98.7304 20.1152C102.111 16.5468 106.791 14.5815 111.909 14.5815C117.028 14.5815 121.69 16.5297 125.038 20.0661C128.26 23.4674 130.033 28.0271 130.033 32.9035V33.0022C130.033 37.879 128.242 42.4558 124.989 45.8896C121.608 49.4589 116.928 51.4237 111.811 51.4237ZM111.811 19.204C104.367 19.204 98.7541 25.0937 98.7541 32.9035V33.0022C98.7541 40.869 104.41 46.8016 111.909 46.8016C119.353 46.8016 124.965 40.9119 124.965 33.1013V33.0022C124.965 25.1358 119.31 19.204 111.811 19.204Z" fill="#0D0F3D"/>
</g>
<mask id="mask1_2278_3042" style="mask-type:luminance" maskUnits="userSpaceOnUse" x="0" y="0" width="131" height="52">
<path d="M0 0H130.033V51.4237H0V0Z" fill="white"/>
</mask>
<g mask="url(#mask1_2278_3042)">
<path fill-rule="evenodd" clip-rule="evenodd" d="M27.9895 49.7505C27.4677 49.3159 27.1656 48.6718 27.1656 47.9926V11.2517C27.1656 10.2936 27.7628 9.43684 28.6617 9.10535C29.5606 8.77429 30.5708 9.03738 31.193 9.76614L40.8905 21.1206C41.7105 22.0814 41.5974 23.5253 40.6371 24.3461C39.6764 25.1665 38.232 25.0525 37.4112 24.0922L31.7412 17.4527V45.057C40.2464 42.2836 46.1707 34.3049 46.1707 25.1402C46.1707 15.0332 38.966 6.36834 29.0388 4.53723C27.7961 4.30835 26.9744 3.11567 27.2033 1.87302C27.4331 0.630355 28.627 -0.190922 29.8684 0.0384041C41.9661 2.2694 50.7463 12.8263 50.7463 25.1402C50.7463 37.4546 41.9661 48.011 29.8684 50.242C29.7303 50.2675 29.5917 50.2802 29.4536 50.2802C28.9235 50.2802 28.4043 50.0956 27.9895 49.7505Z" fill="#0D0F3D"/>
</g>
<mask id="mask2_2278_3042" style="mask-type:luminance" maskUnits="userSpaceOnUse" x="0" y="0" width="131" height="52">
<path d="M0 0H130.033V51.4237H0V0Z" fill="white"/>
</mask>
<g mask="url(#mask2_2278_3042)">
<path fill-rule="evenodd" clip-rule="evenodd" d="M21.2663 50.2802C21.7965 50.2802 22.3156 50.0956 22.73 49.7505C23.2518 49.3159 23.5539 48.6718 23.5539 47.9926V11.2517C23.5539 10.2936 22.9567 9.43684 22.0578 9.10535C21.1589 8.77429 20.1487 9.03738 19.5269 9.76614L9.82897 21.1206C9.009 22.0814 9.12213 23.5253 10.0828 24.3461C11.0431 25.1665 12.4875 25.0525 13.3083 24.0922L18.9788 17.4527V45.057C10.4731 42.2836 4.54876 34.3049 4.54876 25.1402C4.54876 15.0332 11.7543 6.36834 21.6811 4.53723C22.9238 4.30835 23.7451 3.11567 23.5162 1.87302C23.2864 0.630355 22.0924 -0.190922 20.8515 0.0384041C8.75424 2.2694 -0.0263672 12.8263 -0.0263672 25.1402C-0.0263672 37.4546 8.75424 48.011 20.8515 50.242C20.9892 50.2675 21.1278 50.2802 21.2663 50.2802Z" fill="#00DEC6"/>
</g>
</svg>
</svg>
